i<svg width="200" height="200" viewBox="0 0 200 200" fill="none" xmlns="http://www.w3.org/2000/svg">
  <g clip-path="url(#clip0_857_4655)">
    <path d="M197.989 114.437L195.251 110.681L195.787 108.749L196.753 107.513L196.7 103.863L193.373 99.8364L187.738 98.9239L181.673 100.049L177.97 102.84L176.844 104.342L172.764 101.874L167.289 100.855L162.403 101.715L157.947 105.042L156.981 97.6882L161.008 97.6349L164.871 97.152L168.521 95.0037L170.722 91.1939L169.487 87.0075L166.589 84.4296L162.186 83.3574L157.411 83.5703L156.338 83.4106L157.411 79.2243L157.357 74.2851L153.867 70.152L150.323 69.3459L147.156 69.4524L143.293 72.1368L141.627 77.3421L142.004 81.422L142.487 83.9467L138.73 83.3041L134.867 83.787L130.947 85.4524L129.068 88.0836L128.532 90.9809L130.087 95.0075L135.133 97.5855L140.395 98.3916L143.563 98.0151L142.863 104.726V113.639L140.072 113.532L139 108.38L135.833 103.977L131.376 102.528L126.061 103.335L121.605 105.589L118.597 102.422L114.57 101.35L110.65 101.886L107.27 104.517L105.715 105.643L103.247 105.855L100.403 103.331L95.3041 102.418L92.0836 103.707L89.8289 105.802L84.3536 103.441L78.019 103.817L73.0798 106.072L71.1482 108.057L68.0342 104.46L61.8593 103.011L57.9391 102.958L52.6235 104.943L50.3156 102.152L45.2167 101.346L40.8669 103.331L39.2015 106.551L35.9277 104.137L35.6045 100.057L32.654 96.9429L27.4486 96.1368L21.5437 97.6387L21.8136 93.2889L20.9011 90.3383L27.8783 90.6083L34.8022 89.1064L38.4524 85.4562L39.7946 81.5361L38.2927 76.4372L30.8327 73.4866L22.673 72.8973L14.7832 74.2395L7.48285 77.46L2.76042 83.0418L0.828857 90.1292L1.04179 97.7528L4.53228 107.308L10.384 117.722L16.9848 125.935L20.7946 128.19L24.2851 127.065L26.3802 121.319L25.1444 111.388L25.3574 110.152L27.5589 110.205L28.4714 115.038L33.0342 122.821L37.2737 127.597L40.6539 128.35L43.3916 126.578L44.4106 121.156L43.6578 114.928L48.0076 115.198L48.0608 119.973L51.3878 125.878L56.2737 129.046L62.768 130.118L65.8289 128.935L69.9619 126.357L70.8213 125.498L74.3118 128.342L79.3574 130.437L83.8669 130.49L87.8935 129.578L91.1673 127.217L93.692 128.399L96.4296 129.795L101.205 128.669L102.817 125.662L103.087 119.863L105.665 120.186L108.456 119.544L108.297 121.692L109.049 124.912L111.464 128.186L115.327 128.616L118.547 127.597L121.445 125.449L124.772 127.167L127.456 127.92L132.125 126.901L135.829 124.376L136.901 123.251L140.764 125.506L144.308 125.182L146.722 123.251L150.532 124.7L153.806 124.057L156.008 120.996L159.981 125.346L165.669 127.76H170.502L174.582 126.095L177.479 124.753L181.399 126.738L187.681 127.38L193.426 125.715L196.323 123.19L199.008 119.11L197.989 114.441V114.437ZM64.4182 117.783L60.9543 118.16L59.2357 116.091L60.6844 113.3L64.6045 112.574L65.6235 114.532L64.4144 117.779L64.4182 117.783ZM85.1939 118.213L81.73 118.589L80.0114 116.521L81.46 113.73L85.3802 113.004L86.3992 114.962L85.1901 118.209L85.1939 118.213ZM134.65 119.719L131.186 120.095L129.468 118.027L130.916 115.236L134.836 114.509L135.855 116.468L134.646 119.715L134.65 119.719ZM171.008 115.779L167.544 116.156L165.825 114.087L167.274 111.297L171.194 110.57L172.213 112.528L171.004 115.776L171.008 115.779Z" fill="#CCF6FF"/>
    <path d="M21.4563 129.289C14.886 129.289 6.82133 115.529 2.71486 105.479C-0.414413 97.8251 -1.8973 86.3536 4.22817 79.2129C8.26239 74.5057 13.6692 73 18.9088 72.0723C22.6844 71.4031 27.654 71.5666 31.5704 72.4829C36.8289 73.7149 39.9734 76.1103 40.6616 79.4183C41.7985 84.8669 37.8746 89.4829 33.4259 90.8023C28.7643 92.1825 24.8023 92.1369 22.4069 91.9468C22.6008 92.4981 22.7909 93.1483 22.9278 93.8631C23.0723 94.6312 23.1331 95.4297 23.1521 96.1179C26.5856 94.8365 30.4031 94.8555 33.2928 96.2396C35.3004 97.2053 36.6008 98.7377 36.9506 100.563C37.2092 101.913 37.2092 103.221 36.943 104.445C36.8099 105.061 36.2016 105.452 35.5856 105.319C34.9696 105.186 34.578 104.578 34.7111 103.962C34.9088 103.053 34.9088 102.027 34.7111 100.992C34.5019 99.8974 33.6464 98.9392 32.3042 98.2966C30.0495 97.2129 26.1407 96.981 22.5019 98.9012C22.1331 99.0951 21.6844 99.0723 21.3384 98.8403C20.9886 98.6084 20.7985 98.2053 20.8365 97.7871C20.8365 97.7681 21 95.9012 20.692 94.2852C20.3498 92.4905 19.597 91.1939 19.5894 91.1825C19.3689 90.8099 19.3803 90.346 19.6122 89.9848C19.8479 89.6236 20.2662 89.4221 20.692 89.4677L21.0305 89.5057C22.7263 89.711 27.232 90.2548 32.7833 88.6122C36.2434 87.5894 39.3042 84.0418 38.4335 79.8822C37.3498 74.6958 26.2054 73.0989 19.3118 74.3194C14.4905 75.1711 9.53616 76.5361 5.96581 80.6996C-1.21669 89.0799 4.19015 103.053 4.83274 104.62C10.3803 118.186 18.3575 128.376 22.2586 126.867C24.981 125.814 25.2624 122.167 25.1749 118.738C25.0951 115.532 24.3004 112.392 23.6464 110.673C23.4867 110.251 23.5894 109.776 23.905 109.46C24.2054 109.16 24.6426 109.057 25.0419 109.175C25.2852 109.213 26.27 109.24 27.635 109C28.2548 108.894 28.8479 109.308 28.9544 109.928C29.0647 110.548 28.6464 111.141 28.0267 111.247C27.4335 111.35 26.8403 111.422 26.3004 111.456C26.7719 113.068 27.3765 115.681 27.4525 118.681C27.5171 121.236 27.6654 127.221 23.0761 128.996C22.5476 129.202 22.0076 129.297 21.4563 129.297V129.289ZM25.0609 109.179C25.0609 109.179 25.0989 109.19 25.1179 109.198C25.1027 109.194 25.0837 109.186 25.0609 109.179Z" fill="black"/>
    <path d="M40.4677 129.532C36.1293 129.532 30.9278 123.327 28.2396 116.848C26.308 112.19 25.7947 106.372 30.1483 104.011C33.9734 101.935 36.5628 103.194 38.559 105.228C39.4791 103.198 40.8328 101.76 42.6008 100.947C45.7947 99.4789 50.521 99.9048 52.9849 103.593C53.2244 103.947 53.4335 104.331 53.616 104.722C53.8784 105.296 53.6274 105.973 53.0533 106.236C52.4791 106.498 51.8023 106.247 51.54 105.673C51.4107 105.388 51.2586 105.118 51.0875 104.863C49.7719 102.897 46.6845 101.582 43.5552 103.023C41.9392 103.764 40.7795 105.319 40.1027 107.635L40.0571 107.791C39.9316 108.198 39.5894 108.498 39.1712 108.574C38.7529 108.65 38.3271 108.487 38.0647 108.148C36.0039 105.483 34.308 104.353 31.2396 106.015C27.3385 108.133 29.8137 114.68 30.3499 115.973C33.1027 122.608 38.3118 128.049 41.0685 127.163C42.9012 126.574 43.2586 123.981 43.3689 121.521C43.5058 118.445 42.9088 116.171 42.3613 115.152C42.1331 114.734 42.194 114.217 42.5058 113.859C42.8214 113.502 43.3233 113.376 43.7681 113.544C44.9012 113.973 46.2358 114.053 47.5324 113.768C48.1483 113.635 48.7567 114.019 48.8936 114.635C49.0305 115.251 48.6426 115.859 48.0267 115.996C47.0723 116.205 46.0951 116.266 45.1483 116.179C45.5096 117.593 45.7453 119.445 45.6502 121.623C45.5628 123.585 45.3613 128.182 41.7681 129.338C41.3499 129.471 40.9164 129.536 40.4715 129.536L40.4677 129.532Z" fill="black"/>
    <path d="M68.7834 120.703C68.7187 120.703 68.6541 120.7 68.5895 120.688C67.9963 120.586 67.3917 120.62 66.9925 120.643C66.772 120.654 66.6123 120.662 66.4602 120.654C65.9697 120.616 65.559 120.27 65.4412 119.795C65.3233 119.319 65.521 118.821 65.9355 118.555C66.0533 118.479 66.1788 118.422 66.3727 118.338C66.7225 118.179 67.3119 117.916 67.9469 117.49C68.4716 117.137 69.1788 117.278 69.5286 117.798C69.7415 118.114 69.7758 118.494 69.6541 118.825C69.867 119.076 69.9735 119.414 69.9126 119.76C69.8176 120.316 69.3347 120.707 68.791 120.707L68.7834 120.703Z" fill="black"/>
    <path d="M61.3042 131.175C58.5969 131.175 55.7985 130.361 53.3916 128.821C49.9087 126.593 47.6046 123.091 46.8973 118.962C45.8213 112.673 48.7566 104.753 55.5285 102.38C61.5133 100.285 69.3004 101.878 71.9772 108.175C72.2243 108.753 71.9544 109.426 71.3726 109.669C70.7947 109.916 70.1217 109.646 69.8783 109.064C67.7262 104 61.2738 102.783 56.2814 104.532C51.8593 106.08 47.981 111.757 49.1445 118.578C49.7414 122.068 51.6844 125.026 54.6198 126.901C57.4905 128.738 60.9962 129.357 63.9886 128.551C66.1217 127.977 68.981 126.585 70.0228 124.551C70.3118 123.992 71 123.768 71.5589 124.057C72.1179 124.346 72.3422 125.03 72.0532 125.593C70.673 128.285 67.289 130.026 64.5817 130.753C63.5285 131.038 62.422 131.175 61.3004 131.175H61.3042Z" fill="black"/>
    <path d="M61.6844 119.502C60.6882 119.502 59.73 119.182 59.057 118.456C58.5323 117.893 58.2737 117.11 58.3118 116.194C58.3688 114.863 59.0418 113.426 60.0266 112.528C61.6388 111.064 64.4829 110.528 65.9886 112.099C66.5817 112.715 66.8783 113.559 66.8479 114.54C66.8061 115.863 66.1673 117.251 65.1787 118.156C64.2699 118.992 62.9429 119.498 61.6844 119.498V119.502ZM63.5627 113.43C62.9277 113.43 62.1141 113.722 61.5627 114.224C61.0304 114.707 60.6236 115.578 60.5931 116.296C60.5817 116.578 60.6312 116.806 60.7262 116.909C61.2623 117.487 62.7871 117.262 63.635 116.483C64.1635 116 64.5437 115.171 64.5665 114.475C64.5741 114.274 64.5513 113.905 64.3422 113.688C64.1749 113.513 63.8935 113.433 63.5589 113.433L63.5627 113.43Z" fill="black"/>
    <path d="M87.6198 120.836C87.1369 120.836 86.7034 120.532 86.5437 120.072C86.3803 119.608 86.5323 119.095 86.9202 118.795C86.9924 118.738 87.0913 118.673 87.2472 118.582C87.3841 118.498 87.597 118.373 87.9316 118.148C88.4563 117.798 89.1635 117.939 89.5133 118.46C89.6236 118.624 89.6844 118.81 89.7034 118.992C89.8289 119.163 89.905 119.373 89.9164 119.597C89.9506 120.228 89.4677 120.764 88.8403 120.798C88.251 120.829 87.9392 120.833 87.7339 120.836H87.635C87.635 120.836 87.6236 120.836 87.616 120.836H87.6198Z" fill="black"/>
    <path d="M82.2017 131.84C79.8861 131.84 77.5059 131.27 75.3576 130.156C71.6884 128.251 69.0762 124.973 68.0002 120.92C66.3614 114.753 68.5705 106.601 75.099 103.627C80.4298 101.202 86.658 101.985 90.2511 105.532C90.6998 105.977 90.7036 106.696 90.2587 107.144C89.8139 107.593 89.0952 107.597 88.6466 107.156C85.715 104.259 80.5325 103.662 76.0458 105.703C71.7797 107.646 68.4298 113.65 70.2055 120.335C71.1143 123.757 73.3196 126.525 76.407 128.129C79.4337 129.7 82.9774 130 85.8861 128.924C87.8519 128.198 89.6504 127.011 90.7036 125.749C91.1067 125.262 91.8253 125.198 92.3082 125.601C92.7911 126.004 92.8595 126.722 92.4565 127.205C91.1409 128.787 89.0344 130.194 86.677 131.065C85.274 131.582 83.7492 131.837 82.1979 131.837L82.2017 131.84Z" fill="black"/>
    <path d="M82.3726 120.144C81.5209 120.144 80.7034 119.893 80.0684 119.323C79.4943 118.81 79.1673 118.053 79.1217 117.137C79.057 115.806 79.597 114.316 80.4981 113.335C81.9696 111.734 84.7529 110.943 86.3954 112.369C87.0418 112.931 87.4145 113.745 87.4715 114.722C87.5513 116.046 87.038 117.483 86.1369 118.475C85.2167 119.487 83.7529 120.148 82.3726 120.148V120.144ZM84.2662 113.901C83.6122 113.901 82.7262 114.281 82.1787 114.878C81.692 115.407 81.365 116.312 81.3992 117.027C81.4145 117.308 81.4829 117.528 81.5894 117.624C82.1787 118.148 83.673 117.791 84.4487 116.939C84.9278 116.411 85.2357 115.551 85.1939 114.855C85.1825 114.654 85.1293 114.289 84.9011 114.091C84.7491 113.962 84.5285 113.901 84.2662 113.901Z" fill="black"/>
    <path d="M175.947 118.654C175.852 118.654 175.753 118.643 175.658 118.616L175.59 118.597C175.24 118.506 175.072 118.46 174.78 118.452L173.628 118.487H173.612C173.103 118.487 172.658 118.152 172.517 117.662C172.377 117.167 172.582 116.639 173.019 116.373C173.16 116.285 173.301 116.198 173.445 116.106C173.612 116 173.776 115.897 173.936 115.791C173.962 115.776 173.989 115.757 174.015 115.741C175.19 115.099 176.027 114.414 176.738 113.517C177.129 113.023 177.844 112.939 178.339 113.331C178.833 113.722 178.917 114.441 178.525 114.931C178.004 115.585 177.422 116.163 176.745 116.684C177.031 116.962 177.167 117.38 177.057 117.795C176.924 118.308 176.46 118.646 175.955 118.646L175.947 118.654Z" fill="black"/>
    <path d="M168.612 129.27C166.205 129.27 163.776 128.718 161.601 127.639C157.901 125.806 155.202 122.597 154 118.608C151.977 111.893 155.031 104.563 161.103 101.555C167.696 98.2888 173.707 100.555 175.962 102.209C176.513 102.612 177.118 103.16 177.669 103.749C178.099 104.209 178.072 104.931 177.612 105.361C177.152 105.791 176.43 105.764 176 105.304C175.384 104.642 174.867 104.232 174.612 104.045C173.107 102.943 167.932 100.715 162.114 103.597C157.027 106.118 154.475 112.289 156.183 117.95C157.947 123.802 164.335 128.616 171.973 126.547L172.088 126.517C172.814 126.327 175.023 125.745 176.525 123.639C176.89 123.125 177.601 123.007 178.114 123.372C178.627 123.737 178.745 124.449 178.38 124.962C176.403 127.737 173.589 128.479 172.665 128.722L172.567 128.749C171.285 129.095 169.951 129.266 168.608 129.266L168.612 129.27Z" fill="black"/>
    <path d="M168.361 117.798C167.51 117.798 166.692 117.548 166.057 116.977C165.483 116.464 165.156 115.707 165.11 114.791C165.046 113.46 165.586 111.97 166.487 110.989C167.958 109.388 170.742 108.597 172.384 110.023C173.031 110.586 173.403 111.399 173.46 112.376C173.54 113.7 173.027 115.137 172.126 116.129C171.206 117.141 169.742 117.802 168.361 117.802V117.798ZM167.578 115.278C168.164 115.802 169.662 115.445 170.437 114.593C170.917 114.065 171.225 113.205 171.183 112.51C171.171 112.308 171.118 111.943 170.89 111.745C170.361 111.285 168.936 111.7 168.167 112.532C167.681 113.061 167.354 113.966 167.388 114.681C167.403 114.962 167.472 115.183 167.578 115.278Z" fill="black"/>
    <path d="M132.11 121.814C131.008 121.814 130.011 121.479 129.335 120.871C127.825 119.517 127.833 116.673 129.354 114.654C130.08 113.688 131.156 113.088 132.384 112.958C133.605 112.833 134.829 113.186 135.665 113.913C137.255 115.297 137.327 118.361 135.81 120.221C135.08 121.114 133.894 121.688 132.548 121.795C132.399 121.806 132.255 121.81 132.11 121.81V121.814ZM130.856 119.175C131.148 119.437 131.745 119.57 132.369 119.525C133.072 119.468 133.715 119.186 134.042 118.783C134.814 117.84 134.764 116.156 134.167 115.639C133.81 115.331 133.202 115.171 132.62 115.228C132.202 115.274 131.612 115.445 131.175 116.027C130.247 117.255 130.369 118.734 130.856 119.171V119.175Z" fill="black"/>
    <path d="M115.057 130.125C112.369 130.125 109.589 128.912 108.24 125.905C107.053 123.262 107.209 120.319 107.548 119.403C107.764 118.814 108.422 118.509 109.011 118.73C109.601 118.947 109.905 119.604 109.684 120.194C109.555 120.582 109.373 122.859 110.319 124.973C111.491 127.585 114.327 128.205 116.616 127.661C118.087 127.312 119.183 126.452 120.061 124.958C120.38 124.414 121.08 124.236 121.624 124.555C122.167 124.874 122.346 125.574 122.027 126.118C120.825 128.156 119.228 129.384 117.144 129.882C116.471 130.042 115.768 130.129 115.053 130.129L115.057 130.125Z" fill="black"/>
    <path d="M97.3157 131.137C93.5172 131.137 90.3081 127.962 88.4563 122.331C86.6503 116.84 86.4373 111.931 87.8252 107.741L87.867 107.608C88.2776 106.327 89.5324 102.422 94.9012 101.601C98.7795 101.007 100.84 102.65 102.342 103.852C103.228 104.559 103.749 104.954 104.319 104.916C105.745 104.821 106.376 104.118 107.247 103.141C108.316 101.947 109.643 100.46 112.616 100.266C117.726 99.9352 120.905 101.604 122.608 105.521C122.859 106.099 122.593 106.772 122.019 107.023C121.441 107.274 120.768 107.007 120.517 106.433C119.597 104.323 117.958 102.209 112.764 102.547C110.723 102.68 109.901 103.601 108.951 104.665C107.954 105.779 106.829 107.042 104.472 107.198C102.996 107.293 101.943 106.452 100.924 105.639C99.5552 104.547 98.1407 103.418 95.251 103.859C91.2776 104.468 90.4145 107.16 90.0419 108.308L89.9925 108.46C88.7643 112.175 88.9773 116.601 90.6274 121.62C91.3537 123.829 93.4373 128.855 97.3233 128.855C97.4411 128.855 97.5552 128.852 97.6769 128.84C99.4678 128.703 101.601 127.281 102.034 124.912C102.384 123 101.909 121.007 101.696 120.399C101.487 119.806 101.802 119.152 102.395 118.947C102.989 118.741 103.643 119.053 103.848 119.646C104.205 120.669 104.696 123.015 104.278 125.323C103.635 128.852 100.555 130.905 97.8518 131.114C97.6731 131.129 97.4944 131.133 97.3195 131.133L97.3157 131.137Z" fill="black"/>
    <path d="M105.297 121.46C101.335 121.46 99.1863 118.373 98.9544 118.015C98.6084 117.49 98.7529 116.779 99.2814 116.433C99.8099 116.087 100.517 116.232 100.863 116.76C100.928 116.859 102.487 119.179 105.304 119.179C105.331 119.179 105.357 119.179 105.38 119.179C107.285 119.148 109.042 118.08 109.962 116.384C110.262 115.829 110.958 115.627 111.51 115.928C112.065 116.228 112.266 116.92 111.966 117.475C110.65 119.893 108.141 121.418 105.414 121.46C105.376 121.46 105.338 121.46 105.3 121.46H105.297Z" fill="black"/>
    <path d="M127.719 129.049C124.046 129.049 120.688 127.372 118.464 124.346C115.924 120.89 116.008 116.836 116.285 114.73C117.319 106.829 122.422 102.996 126.856 102.045C134.415 100.426 137.791 104.194 138.894 105.893C140.186 107.882 140.749 110.578 140.886 112.479C141.479 112.426 142.217 112.407 143.027 112.521C143.65 112.608 144.088 113.186 144 113.81C143.913 114.433 143.338 114.871 142.711 114.783C141.719 114.642 140.825 114.776 140.293 114.852C140.088 114.882 139.935 114.905 139.795 114.909C139.475 114.92 139.171 114.791 138.947 114.563C138.726 114.334 138.608 114.023 138.624 113.707C138.688 112.544 138.357 109.274 136.973 107.141C134.437 103.236 129.384 103.84 127.327 104.281C121.73 105.483 119.118 110.623 118.54 115.03C118.308 116.798 118.228 120.182 120.297 123C122.453 125.935 125.787 127.251 129.449 126.62C132.947 126.015 135.3 123.464 136.148 122.395C136.361 122.125 136.684 121.969 137.027 121.966C137.365 121.958 137.696 122.11 137.916 122.372L137.958 122.422C138.335 122.874 139.335 124.076 141.148 124.342C142.639 124.563 144.643 124.198 145.802 122.517C146.16 122 146.871 121.867 147.388 122.224C147.905 122.582 148.038 123.293 147.681 123.81C146.213 125.935 143.582 127.004 140.818 126.597C139.072 126.338 137.844 125.506 137.072 124.798C135.688 126.251 133.221 128.277 129.837 128.863C129.122 128.988 128.411 129.049 127.711 129.049H127.719Z" fill="black"/>
    <path d="M150.829 125.798C150.722 125.798 150.616 125.798 150.513 125.791C144.243 125.49 141.51 117.247 141.582 109.213C141.62 105.186 141.779 101.802 142.057 99.3003C139.81 99.422 136.278 99.2737 133.586 98.1939C129.498 96.5551 127.361 94.0456 127.232 90.7376C127.068 86.5019 131.24 83.422 135.186 82.3536C137.129 81.825 139.559 82.1635 141.255 82.5437C140.544 79.8897 140.384 77.6045 140.787 75.7224C141.597 71.9087 144.696 68.0608 149.795 68.0608H149.81C153.715 68.0684 156.479 70.114 158.03 74.1444L158.049 74.1901C158.901 76.4068 158.844 79.3231 157.897 82.5437C159.844 82.2281 162.54 81.9315 164.54 82.4714C167.669 83.3117 171.392 85.9201 171.589 90.5133C171.791 95.2319 167.616 97.9163 163.981 98.7832C161.977 99.2585 159.882 99.346 158.308 99.2015C158.597 101.103 158.798 103.186 158.901 105.426C158.932 106.057 158.445 106.589 157.814 106.62C157.175 106.646 156.65 106.163 156.62 105.532C156.491 102.783 156.205 100.182 155.787 98.0076C155.711 97.6121 155.852 97.2015 156.152 96.9353C156.456 96.6692 156.878 96.5817 157.262 96.7072C158.205 97.019 160.825 97.1863 163.449 96.5627C166.24 95.9011 169.449 93.9429 169.308 90.6121C169.122 86.2813 164.81 84.9087 163.947 84.6768C161.867 84.1178 158.35 84.768 156.848 85.0456C156.669 85.0798 156.517 85.1064 156.388 85.1292C155.985 85.2015 155.574 85.0494 155.312 84.7338C155.049 84.4182 154.977 83.9885 155.122 83.6045L155.156 83.5133C156.449 80.1254 156.715 77.1064 155.909 75.0152L155.89 74.9695C155.403 73.7072 154.114 70.3536 149.795 70.346H149.783C145.414 70.346 143.468 74.0228 143.008 76.1977C142.597 78.1292 142.939 80.6844 144.019 83.7984C144.164 84.2129 144.061 84.6768 143.749 84.9885C143.441 85.2965 142.981 85.4106 142.57 85.2661C141.506 84.8935 137.97 83.9657 135.772 84.5589C133.183 85.2623 129.376 87.4638 129.502 90.6539C129.639 94.1635 133.236 95.6045 134.418 96.076C137.205 97.1939 141.502 97.1673 143.183 96.9049C143.544 96.8479 143.905 96.9695 144.164 97.2243C144.422 97.479 144.54 97.8441 144.487 98.2053C144.114 100.662 143.894 104.479 143.852 109.236C143.81 114.061 145.167 123.255 150.608 123.517C152.445 123.608 153.867 122.517 154.928 120.182C155.19 119.608 155.863 119.354 156.437 119.616C157.011 119.874 157.266 120.551 157.004 121.125C155.27 124.943 152.741 125.802 150.814 125.802L150.829 125.798Z" fill="black"/>
    <path d="M185.186 118.296C180.114 118.296 176.194 115.681 174.936 111.452C173.19 105.578 177.867 101.084 179.217 100.205C184.263 96.9087 188.943 97.8326 190.479 98.1368C192.331 98.5018 197.723 100.532 198.209 104.909C198.483 107.369 197.936 109.209 196.59 110.384C194.046 112.601 189.624 111.487 187.958 111.068C187.829 111.034 187.723 111.008 187.647 110.992C187.323 110.977 187.012 110.825 186.799 110.551C186.411 110.053 186.502 109.338 187 108.95C187.464 108.589 187.882 108.696 188.517 108.855C189.738 109.163 193.445 110.099 195.091 108.665C195.84 108.011 196.126 106.833 195.943 105.16C195.631 102.338 191.506 100.665 190.038 100.373C187.761 99.9201 184.289 99.6121 180.464 102.114C180.43 102.137 175.612 105.715 177.122 110.802C178.091 114.072 181.103 116.015 185.183 116.015C185.221 116.015 185.255 116.015 185.293 116.015C185.92 116.015 186.43 116.521 186.434 117.148C186.437 117.779 185.932 118.293 185.301 118.296C185.263 118.296 185.225 118.296 185.186 118.296Z" fill="black"/>
    <path d="M186.167 128.635C183.954 128.635 181.578 128.224 179.373 127.049C178.555 126.612 174.475 124.236 174.426 120.243C174.365 115.635 177.449 114.224 177.799 114.076C178.38 113.836 179.05 114.11 179.289 114.692C179.529 115.274 179.255 115.943 178.673 116.182C178.593 116.217 176.665 117.061 176.707 120.209C176.745 122.977 180.069 124.833 180.449 125.034C185.243 127.593 191.27 125.779 193.034 124.931C196.285 123.179 198.118 119.7 197.491 116.464C196.859 113.22 193.81 111.601 193.78 111.585C193.213 111.327 192.943 110.658 193.194 110.087C193.445 109.517 194.091 109.243 194.665 109.483C195.483 109.825 198.958 112.061 199.73 116.027C200.548 120.239 198.228 124.734 194.091 126.95C194.076 126.958 194.065 126.966 194.05 126.97C192.73 127.612 189.654 128.631 186.167 128.631V128.635Z" fill="black"/>
  </g>
  <defs>
    <clipPath id="clip0_857_4655">
      <rect width="199.89" height="63.7795" fill="white" transform="translate(0 68.0608)"/>
    </clipPath>
  </defs>
</svg>
